<?xml version="1.0" encoding="iso-8859-1"?>
<!-- Generator: Adobe Illustrator 19.0.0, SVG Export Plug-In . SVG Version: 6.00 Build 0)  -->
<svg version="1.1" id="Capa_1" xmlns="http://www.w3.org/2000/svg" xmlns:xlink="http://www.w3.org/1999/xlink" x="0px" y="0px"
	 viewBox="0 0 511.999 511.999" style="enable-background:new 0 0 511.999 511.999;" xml:space="preserve">
<g>
	<g>
		<path d="M507.599,455.634l-36.353-36.354v-49.815c0-8.299-6.728-15.027-15.027-15.027H169.682l-33.488-33.488l92.709-44.341
			c5.22-2.497,8.543-7.77,8.543-13.556V154.313h151.483c8.299,0,15.027-6.728,15.027-15.027c0-32.295-19.9-62.084-56.036-83.876
			c-33.758-20.359-78.328-31.572-125.5-31.572c-47.172,0-91.742,11.212-125.5,31.572c-36.135,21.793-56.036,51.58-56.036,83.876
			c0,8.299,6.728,15.027,15.027,15.027h151.482v99.27l-93.735,44.832l-48.38-48.38c-5.867-5.867-15.382-5.867-21.251,0
			L4.402,289.661C1.584,292.479,0,296.301,0,300.287s1.584,7.808,4.402,10.625l114.594,114.594l-37.004,37.003
			c-5.868,5.867-5.868,15.382,0,21.251c2.934,2.934,6.78,4.402,10.625,4.402s7.692-1.468,10.625-4.402l43.227-43.227h303.526
			l36.352,36.353c2.935,2.935,6.78,4.402,10.626,4.402c3.845,0,7.692-1.468,10.625-4.402
			C513.467,471.018,513.467,461.503,507.599,455.634z M73.398,124.26c13.013-39.421,75.975-70.367,149.022-70.367
			S358.428,84.84,371.441,124.26H73.398z M441.193,410.479H146.469L36.277,300.287l18.375-18.375l98.18,98.18
			c2.818,2.818,6.64,4.402,10.625,4.402h277.735V410.479z"/>
	</g>
</g>
<g>
</g>
<g>
</g>
<g>
</g>
<g>
</g>
<g>
</g>
<g>
</g>
<g>
</g>
<g>
</g>
<g>
</g>
<g>
</g>
<g>
</g>
<g>
</g>
<g>
</g>
<g>
</g>
<g>
</g>
</svg>
