<?xml version="1.0" encoding="iso-8859-1"?>
<!-- Generator: Adobe Illustrator 19.0.0, SVG Export Plug-In . SVG Version: 6.00 Build 0)  -->
<svg version="1.1" id="Capa_1" xmlns="http://www.w3.org/2000/svg" xmlns:xlink="http://www.w3.org/1999/xlink" x="0px" y="0px"
	 viewBox="0 0 512 512" style="enable-background:new 0 0 512 512;" xml:space="preserve">
<g>
	<g>
		<path d="M469,160.333h-50.609c-4.21-12.761-16.238-22-30.391-22h-12v-18.079c0-3.338-1.666-6.457-4.441-8.313l-59.956-40.097
			c-0.009-0.006-0.019-0.013-0.028-0.019l-0.016-0.011c-1.59-1.065-3.501-1.688-5.559-1.688H98c-54.038,0-98,43.963-98,98
			c0,49.975,37.603,91.329,86.001,97.265V390.03c-1.347,1.014-2.458,2.351-3.163,3.961l-28,64c-1.353,3.092-1.055,6.657,0.792,9.481
			S60.625,472,64,472h173.001c5.523,0,10-4.478,10-10c0-35.876-25.666-65.86-59.598-72.582l18.008-75.291h25.526
			c13.82,0,25.063-11.243,25.063-25.063V271.19c0-1.734-0.177-3.428-0.514-5.063H306c2.055,0,3.964-0.622,5.552-1.684
			c0.002-0.002,0.004-0.002,0.007-0.003l0.016-0.011c0.009-0.006,0.019-0.013,0.028-0.019l59.956-40.097
			c2.775-1.855,4.441-4.975,4.441-8.313v-13.667h12c14.153,0,26.181-9.239,30.391-22H469c5.523,0,10-4.478,10-10
			C479,164.811,474.523,160.333,469,160.333z M20,168.127c0-43.01,34.991-78,78-78h20v156H98C54.991,246.127,20,211.137,20,168.127z
			 M226.073,452H79.29l19.25-44h74.461C199.36,408,221.369,426.986,226.073,452z M167.179,388h-61.178v-10.937h18.242
			c5.523,0,10-4.478,10-10c0-5.522-4.477-10-10-10h-18.242v-20h18.242c5.523,0,10-4.478,10-10c0-5.522-4.477-10-10-10h-18.242v-20
			h18.242c5.523,0,10-4.478,10-10c0-5.522-4.477-10-10-10h-18.242v-10.937h90.326L167.179,388z M236,289.063
			c0,2.792-2.271,5.063-5.063,5.063h-20.742l6.697-28h14.045c2.792,0.001,5.063,2.272,5.063,5.064V289.063z M296,246.127H138v-156
			h158V246.127z M356,148.333v44v18.324l-40,26.752V98.845l40,26.752V148.333z M388,182.333h-12v-24h12c6.617,0,12,5.383,12,12
			S394.617,182.333,388,182.333z"/>
	</g>
</g>
<g>
	<g>
		<path d="M214,116.563h-51c-5.523,0-10,4.478-10,10c0,5.522,4.477,10,10,10h51c5.523,0,10-4.478,10-10
			C224,121.041,219.523,116.563,214,116.563z"/>
	</g>
</g>
<g>
	<g>
		<path d="M263.07,119.491c-1.86-1.86-4.44-2.931-7.07-2.931s-5.21,1.07-7.07,2.931c-1.86,1.869-2.93,4.439-2.93,7.069
			s1.07,5.21,2.93,7.07c1.86,1.87,4.44,2.93,7.07,2.93s5.21-1.06,7.07-2.93c1.86-1.86,2.93-4.44,2.93-7.07
			S264.93,121.36,263.07,119.491z"/>
	</g>
</g>
<g>
	<g>
		<path d="M214,156.563h-51c-5.523,0-10,4.478-10,10c0,5.522,4.477,10,10,10h51c5.523,0,10-4.478,10-10
			C224,161.041,219.523,156.563,214,156.563z"/>
	</g>
</g>
<g>
	<g>
		<path d="M214,196.563h-51c-5.523,0-10,4.478-10,10c0,5.522,4.477,10,10,10h51c5.523,0,10-4.478,10-10
			C224,201.041,219.523,196.563,214,196.563z"/>
	</g>
</g>
<g>
	<g>
		<path d="M438,202.127c-5.523,0-10,4.478-10,10V296c0,5.522,4.477,10,10,10s10-4.478,10-10v-83.873
			C448,206.605,443.523,202.127,438,202.127z"/>
	</g>
</g>
<g>
	<g>
		<path d="M445.07,326.93c-1.86-1.86-4.44-2.93-7.07-2.93s-5.21,1.069-7.07,2.93c-1.86,1.86-2.93,4.44-2.93,7.07
			s1.07,5.21,2.93,7.069c1.86,1.86,4.44,2.931,7.07,2.931s5.21-1.07,7.07-2.931c1.86-1.859,2.93-4.439,2.93-7.069
			S446.93,328.79,445.07,326.93z"/>
	</g>
</g>
<g>
	<g>
		<path d="M502,0h-64c-5.523,0-10,4.478-10,10v116.563c0,5.522,4.477,10,10,10s10-4.478,10-10V20h44v472h-44V377.399
			c0-5.522-4.477-10-10-10s-10,4.478-10,10V502c0,5.522,4.477,10,10,10h64c5.523,0,10-4.478,10-10V10C512,4.478,507.523,0,502,0z"/>
	</g>
</g>
<g>
	<g>
		<path d="M98,202.127c-18.748,0-34-15.252-34-34c0-5.522-4.477-10-10-10s-10,4.478-10,10c0,29.775,24.224,54,54,54
			c5.523,0,10-4.478,10-10C108,206.605,103.523,202.127,98,202.127z"/>
	</g>
</g>
<g>
	<g>
		<path d="M395.071,268.929c-3.905-3.905-10.237-3.905-14.142,0l-11.5,11.5c-3.905,3.905-3.905,10.237,0,14.143
			c1.953,1.952,4.512,2.929,7.071,2.929s5.119-0.977,7.071-2.929l11.5-11.5C398.976,279.167,398.976,272.835,395.071,268.929z"/>
	</g>
</g>
<g>
	<g>
		<path d="M366,328c-5.523,0-10,4.478-10,10v14.329c0,5.522,4.477,10,10,10s10-4.478,10-10V338C376,332.478,371.523,328,366,328z"/>
	</g>
</g>
<g>
	<g>
		<path d="M373.071,409.651c-3.905-3.904-10.237-3.904-14.142,0l-5.139,5.139c-3.905,3.905-3.905,10.237,0,14.143
			c1.953,1.952,4.512,2.929,7.071,2.929s5.119-0.977,7.071-2.929l5.139-5.139C376.976,419.889,376.976,413.557,373.071,409.651z"/>
	</g>
</g>
<g>
	<g>
		<path d="M405.071,75.055l-9.229-9.229c-3.905-3.904-10.237-3.904-14.143,0c-3.905,3.905-3.905,10.237,0,14.143l9.23,9.229
			c1.953,1.952,4.512,2.929,7.071,2.929s5.119-0.977,7.071-2.929C408.976,85.293,408.976,78.961,405.071,75.055z"/>
	</g>
</g>
<g>
</g>
<g>
</g>
<g>
</g>
<g>
</g>
<g>
</g>
<g>
</g>
<g>
</g>
<g>
</g>
<g>
</g>
<g>
</g>
<g>
</g>
<g>
</g>
<g>
</g>
<g>
</g>
<g>
</g>
</svg>
