<svg id="Layer_1" enable-background="new 0 0 512.001 512.001" height="512" viewBox="0 0 512.001 512.001" width="512" xmlns="http://www.w3.org/2000/svg"><g><g><path d="m456 447.001h-10v-35c0-5.522-4.478-10-10-10h-69.456l.313-46.905 4.438-41.845c.063-.599.072-1.201.027-1.801l-4.808-64.221 6.657-63.744c.127-1.217.029-2.446-.287-3.627l-3.378-12.605h76.685c3.904 0 7.451-2.272 9.084-5.819l9.807-21.307c.908-1.974 1.149-4.189.687-6.312l-9.807-44.958c-1.028-4.714-5.305-7.994-10.096-7.864l-68.772 2.238-51.473-2.233c-.145-.007-.289-.01-.434-.01h-13.987l-1.834-42.173c-.071-1.658-.556-3.271-1.407-4.696l-17.484-29.25c-1.806-3.02-5.065-4.869-8.584-4.869h-61.091c-5.096 0-9.376 3.831-9.939 8.896l-8.011 72.093h-137.044c-2.687 0-5.26 1.081-7.141 2.999l-9.805 10c-2.231 2.276-3.244 5.479-2.727 8.624l6.38 38.791c.409 2.482 1.737 4.72 3.722 6.266l22.426 17.473c1.763 1.373 3.927 2.111 6.146 2.111.274 0 .549-.011.824-.034l35.471-2.933 24.486 1.982-4.542 32.416c-.123.88-.129 1.772-.016 2.654l5.866 45.952-6.285 74.187c-.044.517-.047 1.035-.011 1.553l5.614 78.971h-70.213c-5.523 0-10 4.478-10 10v35h-10.001c-5.523 0-10 4.478-10 10v45c0 5.522 4.477 10 10 10h400c5.522 0 10-4.478 10-10v-45c0-5.522-4.477-10-10-10zm-168.487-45 2.492-51.446c.021-.423.014-.847-.02-1.269l-4.331-54.966 1.087-37.086 36.174 3.545c.705.069 1.416.063 2.119-.018l22.247-2.56 4.03 53.84-2.572 24.249-11.289-8.187c-4.469-3.239-10.722-2.247-13.967 2.225-3.242 4.471-2.246 10.724 2.225 13.967l21.118 15.316-.284 42.391h-59.029zm-50.139-105.693c.042-.688.013-1.379-.087-2.062l-4.894-33.394 34.304-2.417-1.051 35.839c-.01.359-.001.72.027 1.078l4.323 54.87-2.508 51.778h-36.59zm-7.624-276.308h46.468l13.276 22.211 1.687 38.777h-68.208zm-158.136 114.297-4.922-29.928 3.314-3.381h254.967l34.635 1.503-1.631 1.987c-3.504 4.269-2.885 10.569 1.385 14.074 1.86 1.527 4.106 2.271 6.339 2.271 2.891 0 5.758-1.247 7.735-3.655l11.645-14.185 53.117-1.728 7.319 33.553-5.729 12.446h-138.076c-5.522 0-10 4.478-10 10s4.478 10 10 10h47.091l4.286 15.994-5.725 54.813-23.558 2.711-37.204-3.646c-.558-.055-1.119-.063-1.679-.023l-78.935 5.561-40.114-4.622-3.265-25.578 7.28 2.505c1.05.361 2.149.544 3.253.544.452 0 .904-.03 1.354-.092l26.062-3.563c5.472-.748 9.301-5.791 8.553-11.263s-5.79-9.3-11.262-8.554l-23.704 3.24-11.859-4.08 3.356-23.947h46.068c5.523 0 10-4.478 10-10s-4.477-10-10-10h-53.14l-13.944-1.128 2.084-1.727c4.253-3.523 4.844-9.827 1.32-14.08-3.523-4.255-9.829-4.844-14.08-1.32l-18.983 15.728-27.095 2.24zm88.989 188.093 5.439-64.198 38.579 4.446c.38.044.763.065 1.145.065.234 0 .469-.008.703-.024l5.917-.417 3.867 26.387-24.117 7.43c-5.278 1.626-8.238 7.223-6.612 12.501 1.324 4.297 5.28 7.059 9.553 7.059.975 0 1.967-.144 2.948-.446l18.504-5.701-5.667 92.509h-44.599zm-74.602 99.611h340v25h-340zm359.999 70h-380v-25h380z"/><path d="m256.716 167.253c5.522 0 10-4.478 10-10s-4.478-10-10-10h-.007c-5.523 0-9.996 4.478-9.996 10s4.48 10 10.003 10z"/></g></g></svg>