<?xml version="1.0"?>
<svg xmlns="http://www.w3.org/2000/svg" viewBox="0 0 512 512" width="512" height="512"><g id="Outline"><path d="M136,344a48,48,0,1,0,48,48A48.054,48.054,0,0,0,136,344Zm0,80a32,32,0,1,1,32-32A32.036,32.036,0,0,1,136,424Z"/><path d="M236.841,457.132a7.992,7.992,0,0,0,7.8-4.927l10.751-25.955a8,8,0,0,0-2.03-9l-19.65-17.74V384.49l19.65-17.74a8,8,0,0,0,2.03-9L244.64,331.8a7.982,7.982,0,0,0-7.8-4.927l-26.439,1.35L199.781,317.6l1.351-26.439a8,8,0,0,0-4.928-7.8l-25.954-10.75a8,8,0,0,0-9,2.03l-17.74,19.65H128.49l-17.74-19.65a8,8,0,0,0-9-2.03L75.8,283.359a8,8,0,0,0-4.928,7.8L72.219,317.6,61.6,328.218l-26.439-1.35a7.974,7.974,0,0,0-7.8,4.927L16.609,357.75a8,8,0,0,0,2.03,9l19.65,17.74v15.02l-19.65,17.74a8,8,0,0,0-2.03,9L27.36,452.205a7.983,7.983,0,0,0,7.8,4.927l26.439-1.35L72.219,466.4l-1.351,26.439a8,8,0,0,0,4.928,7.8l25.954,10.75a8,8,0,0,0,9-2.03l17.74-19.65h15.02l17.74,19.65a8,8,0,0,0,9,2.03l25.954-10.75a8,8,0,0,0,4.928-7.8L199.781,466.4l10.621-10.62ZM201.6,441.954,185.954,457.6a8,8,0,0,0-2.333,6.065l1.244,24.351-15.522,6.429L153,476.35a8,8,0,0,0-5.939-2.639h-22.13A8,8,0,0,0,119,476.35l-16.339,18.1-15.522-6.429,1.244-24.351a8,8,0,0,0-2.333-6.065L70.4,441.954a8,8,0,0,0-6.064-2.333l-24.351,1.244-6.429-15.522L51.65,409a8,8,0,0,0,2.639-5.938v-22.13A8,8,0,0,0,51.65,375l-18.1-16.34,6.429-15.522,24.351,1.244a8,8,0,0,0,6.064-2.333L86.046,326.4a8,8,0,0,0,2.333-6.065l-1.244-24.351,15.522-6.429L119,307.65a8,8,0,0,0,5.939,2.639h22.13A8,8,0,0,0,153,307.65l16.339-18.1,15.522,6.429-1.244,24.351a8,8,0,0,0,2.333,6.065l15.65,15.649a8,8,0,0,0,6.064,2.333l24.351-1.244,6.429,15.522L220.35,375a8,8,0,0,0-2.639,5.938v22.13A8,8,0,0,0,220.35,409l18.1,16.34-6.429,15.522-24.351-1.244A8,8,0,0,0,201.6,441.954Z"/><path d="M307.884,282.538,206.915,242.15,171.927,81.2A32.182,32.182,0,0,0,140.657,56H48a8,8,0,0,0-8,8V312H56V72h84.657a16.092,16.092,0,0,1,15.635,12.6l35.891,165.1a8,8,0,0,0,4.846,5.729l104.913,41.965A15.924,15.924,0,0,1,312,312.249V472H216v16H320a8,8,0,0,0,8-8V312.249A31.845,31.845,0,0,0,307.884,282.538Z"/><path d="M464,280a8,8,0,0,0,8-8V224a8,8,0,0,0-8-8H408V184h40a8,8,0,0,0,8-8V128a8,8,0,0,0-8-8H408V80a8,8,0,0,0-8-8H184V88h32v32H200v16h64v32H208v16h96v32H216v16h40v16h16V232h80v32H320v16h88v32H344v16h16v32H344v16h64v32H344v16h16v32H344v16H464a8,8,0,0,0,8-8V416a8,8,0,0,0-8-8H424V376h40a8,8,0,0,0,8-8V320a8,8,0,0,0-8-8H424V280ZM440,136v32H376V136Zm-48-16H328V88h64ZM232,88h80v32H232Zm48,48h80v32H280Zm40,48h72v32H320ZM456,424v32H376V424Zm0-96v32H376V328Zm-88-64V232h88v32Z"/></g></svg>
