<?xml version="1.0" encoding="iso-8859-1"?>
<!-- Generator: Adobe Illustrator 19.0.0, SVG Export Plug-In . SVG Version: 6.00 Build 0)  -->
<svg version="1.1" id="Capa_1" xmlns="http://www.w3.org/2000/svg" xmlns:xlink="http://www.w3.org/1999/xlink" x="0px" y="0px"
	 viewBox="0 0 512 512" style="enable-background:new 0 0 512 512;" xml:space="preserve">
<g>
	<g>
		<path d="M125.597,320.564c-20.88,0-37.866,16.987-37.866,37.866c0,20.88,16.987,37.866,37.866,37.866s37.867-16.987,37.867-37.866
			C163.464,337.55,146.477,320.564,125.597,320.564z M125.597,381.298c-12.609,0-22.867-10.258-22.867-22.867
			s10.258-22.867,22.867-22.867c12.609,0,22.868,10.258,22.868,22.867S138.206,381.298,125.597,381.298z"/>
	</g>
</g>
<g>
	<g>
		<path d="M390.229,320.565c-20.879-0.001-37.865,16.987-37.865,37.866c0,20.88,16.986,37.866,37.865,37.866
			c20.881,0,37.868-16.987,37.868-37.866C428.097,337.551,411.11,320.565,390.229,320.565z M390.23,381.298
			c-12.608,0-22.866-10.258-22.866-22.867c0-12.609,10.258-22.867,22.866-22.867c12.61-0.001,22.869,10.258,22.869,22.867
			C413.099,371.04,402.84,381.298,390.23,381.298z"/>
	</g>
</g>
<g>
	<g>
		<path d="M451.394,180.005c-0.051-0.073-0.103-0.146-0.155-0.217c-4.132-5.532-15.864-18.398-35.545-18.398
			c-7,0-120.476,0-124.744,0c-3.398,0-6.265,2.261-7.186,5.36l-39.954-79.085c-2.8-5.538-8.151-9.261-14.317-9.958
			C147.823,68.482,42.63,122.673,2.454,192.413c-3.093,5.374-3.273,11.888-0.479,17.432l50.403,99.76H30.436
			c-14.264,0-25.869,11.604-25.869,25.867v4.593c0,14.263,11.605,25.867,25.869,25.867H49.08
			c3.783,38.888,36.651,69.388,76.517,69.388c39.863,0,72.731-30.499,76.514-69.388c11.42,0,100.435,0,111.602,0
			c3.783,38.888,36.651,69.388,76.517,69.388c22.914,0,44.466-10.112,59.133-27.744c2.649-3.185,2.215-7.913-0.97-10.563
			c-3.185-2.648-7.912-2.214-10.562,0.97c-11.809,14.195-29.159,22.336-47.602,22.336c-34.125,0-61.888-27.763-61.888-61.888
			c0-34.124,27.763-61.886,61.888-61.886c42.498,0,72.666,42.245,58.338,82.598c-1.387,3.903,0.654,8.191,4.558,9.578
			c3.904,1.385,8.191-0.654,9.577-4.558c2.094-5.897,3.437-12.005,4.04-18.232h19.361c14.263,0,25.866-11.604,25.866-25.867v-70.28
			C511.968,266.384,515.41,272.407,451.394,180.005z M180.246,304.415c39.197-16.58,77.57-43.449,103.203-76.672v81.862h-98.506
			v-0.001C183.458,307.802,181.887,306.074,180.246,304.415z M122.035,111.843l14.433,28.568c1.869,3.697,6.38,5.178,10.076,3.312
			c3.697-1.868,5.18-6.379,3.313-10.076l-13.853-27.418c28.785-10.629,61.7-17.019,91.804-13.617
			c1.126,0.127,2.104,0.808,2.615,1.819c56.729,112.288,53.798,105.05,52.508,107.288c-13.827,24-36.951,47.1-65.42,65.833
			l-56.55-111.928c-1.868-3.698-6.379-5.18-10.077-3.312c-3.697,1.868-5.18,6.379-3.312,10.076l57.132,113.081
			c-10.166,5.908-19.254,10.356-28.339,14.283L93.702,126.137C103.001,120.735,112.432,115.994,122.035,111.843z M15.367,203.085
			c-0.511-1.015-0.479-2.207,0.086-3.188c13.83-24.006,36.961-47.11,65.442-65.845l78.464,155.303
			c-30.858-15.151-68.42-7.794-91.274,18.052C67.984,307.24,15.455,203.259,15.367,203.085z M49.068,350.93H30.436
			c-5.993,0.001-10.869-4.874-10.869-10.867v-4.593c0-5.992,4.876-10.867,10.869-10.867h26.089
			C52.307,333.175,49.88,342.453,49.068,350.93z M125.597,420.318c-53.269,0-81.794-63.689-45.763-103.505
			c38.217-41.984,107.648-14.626,107.648,41.618C187.482,392.556,159.721,420.318,125.597,420.318z M283.45,350.931h-81.327
			c-0.844-8.808-3.326-17.931-7.457-26.327h88.784V350.931z M343.605,176.391c78.866,0,75.931-0.691,82.619,2.086
			c6.656,2.764,10.967,7.592,12.922,10.187l37.306,53.849H354.473c-5.993,0-10.869-4.875-10.869-10.867V176.391z M496.968,340.063
			c0,5.992-4.875,10.867-10.866,10.867h-19.349c-1.034-10.612-4.391-21.462-10.235-31.385
			c-37.541-63.764-135.577-42.867-142.813,31.385H298.45c0-1.784,0-172.698,0-174.54h30.154v55.255
			c0,14.263,11.604,25.867,25.869,25.867h132.37l10.126,14.616V340.063z"/>
	</g>
</g>
<g>
</g>
<g>
</g>
<g>
</g>
<g>
</g>
<g>
</g>
<g>
</g>
<g>
</g>
<g>
</g>
<g>
</g>
<g>
</g>
<g>
</g>
<g>
</g>
<g>
</g>
<g>
</g>
<g>
</g>
</svg>
