<svg id="Layer_1" height="512" viewBox="0 0 512 512" width="512" xmlns="http://www.w3.org/2000/svg" data-name="Layer 1"><path d="m256 475.992q2.631 0 5.238-.03a6 6 0 1 0 -.137-12q-2.538.029-5.1.029a6 6 0 1 0 0 12z"/><path d="m172.73 484.109c-7.056-.869-14.028-1.86-20.723-2.946a6 6 0 0 0 -1.921 11.845c6.845 1.111 13.971 2.123 21.177 3.011a6 6 0 1 0 1.467-11.91z"/><path d="m372.56 478.956c-5.568 1.055-11.369 2.045-17.242 2.943a670.4 670.4 0 0 1 -99.318 7.101c-10.235 0-20.52-.212-30.569-.631-4.746-.2-9.524-.445-14.2-.735a6 6 0 0 0 -.742 11.977c4.758.3 9.617.546 14.444.747 10.215.426 20.669.642 31.069.642a682.467 682.467 0 0 0 101.131-7.242c6.014-.919 11.956-1.933 17.663-3.015a6 6 0 0 0 -2.234-11.79z"/><path d="m415.154 468.34c-4.316 1.4-8.9 2.757-13.638 4.037a6 6 0 1 0 3.131 11.584c4.925-1.332 9.7-2.747 14.207-4.206a6 6 0 0 0 -3.7-11.415z"/><path d="m491 11h-38.615a16.02 16.02 0 0 0 -15.348 11.515h-28.045a6 6 0 0 0 -6 6v10.55h-293.984v-10.553a6 6 0 0 0 -6-6h-28.045a16.02 16.02 0 0 0 -15.348-11.512h-38.615a16.018 16.018 0 0 0 -16 16v176.454a16.018 16.018 0 0 0 16 16h38.615a16.02 16.02 0 0 0 15.348-11.516h28.045a6 6 0 0 0 6-6v-10.55h130.867a6 6 0 0 0 5.346-3.276l8.551-16.785a6 6 0 0 0 .483-4.146l-3.395-13.913 14.14 13.953v18.167a6 6 0 0 0 6 6h132v10.55a6 6 0 0 0 6 6h28.045a16.02 16.02 0 0 0 15.348 11.516h38.607a16.019 16.019 0 0 0 16-16v-176.454a16.019 16.019 0 0 0 -16-16zm-427.385 192.454a4.005 4.005 0 0 1 -4 4h-38.615a4 4 0 0 1 -4-4v-45.234h46.615zm0-57.234h-46.615v-61.99h46.615zm0-73.99h-46.615v-45.23a4 4 0 0 1 4-4h38.615a4.005 4.005 0 0 1 4 4zm33.393 123.708h-21.393v-161.426h21.393zm305.984-16.55h-125.992v-14.676a6 6 0 0 0 -1.785-4.27l-30.987-30.582a6 6 0 0 0 -10.044 5.692l7.885 32.311-5.869 11.525h-127.192v-128.326h293.984zm33.393 16.55h-21.393v-161.426h21.393zm58.615 7.516a4 4 0 0 1 -4 4h-38.615a4.005 4.005 0 0 1 -4-4v-45.234h46.615zm0-57.234h-46.615v-61.99h46.615zm0-73.99h-46.615v-45.23a4.005 4.005 0 0 1 4-4h38.615a4 4 0 0 1 4 4z"/><path d="m216.753 474.247a6 6 0 0 0 .54-11.976c-7.59-.694-15-1.6-22.032-2.7-5.663-.883-11.145-1.9-16.292-3.016a6 6 0 1 0 -2.55 11.725c5.379 1.17 11.1 2.229 16.995 3.148 7.278 1.133 14.944 2.072 22.786 2.79.186.021.37.029.553.029z"/><path d="m350.658 398.506c-25.366-7.428-58.983-11.519-94.658-11.519s-69.292 4.091-94.658 11.519c-28.015 8.2-42.823 19.609-42.823 32.983 0 14.841 18.268 24.5 33.592 29.994a6 6 0 1 0 4.048-11.3c-12.395-4.442-25.64-11.687-25.64-18.7 0-8.453 18.421-16.847 34.2-21.467 24.3-7.116 56.72-11.035 91.285-11.035s66.984 3.919 91.285 11.035c15.775 4.62 34.2 13.014 34.2 21.467 0 10.353-31.431 27.589-98.9 31.7a6 6 0 0 0 .36 11.989c.123 0 .246 0 .371-.011 29.673-1.81 56.769-6.636 76.3-13.588 15.451-5.5 33.869-15.188 33.869-30.094-.008-13.364-14.816-24.769-42.831-32.973z"/><path d="m262 444.178a6 6 0 0 0 -6-6 129.759 129.759 0 0 1 -17.483-1.128 6 6 0 0 0 -1.624 11.89 141.812 141.812 0 0 0 19.107 1.238 6 6 0 0 0 6-6z"/><path d="m272.553 437.173c-.377.049-.758.095-1.14.14a6 6 0 1 0 1.4 11.918q.637-.075 1.264-.154a6 6 0 0 0 -1.521-11.9z"/><path d="m287.928 440.606a6 6 0 0 0 8.037 2.721c7.741-3.827 9.366-8.55 9.366-11.838 0-9.288-12.138-13.866-22.32-16.072a6 6 0 1 0 -2.54 11.729c6.85 1.483 10.455 3.221 12.062 4.334a14.614 14.614 0 0 1 -1.885 1.089 6 6 0 0 0 -2.72 8.037z"/><path d="m266.31 413.147c-3.357-.23-6.826-.346-10.31-.346-12.129 0-23.609 1.406-32.326 3.958-11.284 3.3-17 8.26-17 14.73 0 5.633 4.352 10.134 12.935 13.377a6 6 0 1 0 4.242-11.225 20 20 0 0 1 -4.419-2.186c3.855-2.765 17.168-6.655 36.568-6.655 3.211 0 6.4.107 9.489.318a6 6 0 0 0 .821-11.972z"/><path d="m110.5 472.382a257.778 257.778 0 0 1 -24.859-7.99c-25.762-9.882-40.537-21.875-40.537-32.9 0-13.658 22.136-28.295 59.213-39.152 7.952-2.329 16.605-4.491 25.717-6.426a6 6 0 1 0 -2.493-11.739c-9.407 2-18.355 4.235-26.6 6.648-44.382 13-67.841 30.518-67.841 50.669 0 16.749 16.681 32 48.239 44.107a269.693 269.693 0 0 0 26.027 8.37 6 6 0 0 0 3.13-11.584z"/><path d="m425.064 385.325a6 6 0 1 0 -4 11.315c29.123 10.289 45.827 22.991 45.827 34.849 0 7.755-7.274 14.626-13.376 19.025a104.384 104.384 0 0 1 -18.021 10.086 6 6 0 1 0 4.926 10.942 116.188 116.188 0 0 0 20.114-11.294c12.183-8.781 18.36-18.457 18.36-28.759 0-17.76-18.614-33.723-53.83-46.164z"/><path d="m404.1 391.313a6 6 0 0 0 3.23-11.558c-7.171-2-14.869-3.882-22.879-5.584a6 6 0 0 0 -2.494 11.739c7.766 1.649 15.215 3.466 22.143 5.403z"/><path d="m224.931 362.618a6 6 0 1 0 .5 11.989c10.049-.419 20.334-.631 30.569-.631a671.664 671.664 0 0 1 98.487 6.978 6 6 0 1 0 1.794-11.866 674.329 674.329 0 0 0 -100.281-7.112c-10.4 0-20.854.216-31.069.642z"/><path d="m156.6 381.023a6.188 6.188 0 0 0 .905-.068c8.111-1.227 16.574-2.312 25.153-3.223 4.434-.471 8.99-.905 13.542-1.291a6 6 0 1 0 -1.012-11.957c-4.636.392-9.279.835-13.8 1.315-8.754.93-17.394 2.037-25.68 3.29a6 6 0 0 0 .89 11.934z"/><path d="m295.4 258.072-34.521-48.1a6 6 0 0 0 -4.871-2.5 6 6 0 0 0 -4.87 2.5l-34.522 47.968q-.168.234-.313.483c-7.442 12.768-7.358 28.269.224 41.464a45.4 45.4 0 0 0 79-.05c7.546-13.169 7.613-28.606.177-41.3-.104-.159-.204-.314-.304-.465zm-10.287 35.793a33.4 33.4 0 0 1 -58.186.039c-5.448-9.483-5.59-20.111-.4-29.2l29.469-40.948 29.485 41.081c5.174 9.012 5.044 19.578-.372 29.028z"/><path d="m275.134 269.472a6 6 0 0 0 -7.071 4.691 32.993 32.993 0 0 1 -9.463 16.947 6 6 0 1 0 8.335 8.632 45.1 45.1 0 0 0 12.886-23.2 6 6 0 0 0 -4.687-7.07z"/></svg>